<svg xmlns="http://www.w3.org/2000/svg" xmlns:xlink="http://www.w3.org/1999/xlink" xmlns:lucid="lucid" width="3317" height="1260"><g transform="translate(-319.99999999999994 -480)" lucid:page-tab-id="MdxL_cNJ~2za"><path d="M340 1006a6 6 0 0 1 6-6h768a6 6 0 0 1 6 6v188a6 6 0 0 1-6 6H346a6 6 0 0 1-6-6z" stroke="#5e5e5e" stroke-width="3" fill="#fff"/><use xlink:href="#a" transform="matrix(1,0,0,1,351.99999999999994,1012) translate(59.17283950617298 96.22222222222221)"/><path d="M2877 1526a6 6 0 0 1 6-6h728a6 6 0 0 1 6 6v188a6 6 0 0 1-6 6h-728a6 6 0 0 1-6-6z" stroke="#5e5e5e" stroke-width="3" fill="#fff"/><use xlink:href="#b" transform="matrix(1,0,0,1,2889.0000999999993,1532) translate(63.15123456790138 96.22222222222221)"/><path d="M1640 506a6 6 0 0 1 6-6h708a6 6 0 0 1 6 6v168a6 6 0 0 1-6 6h-708a6 6 0 0 1-6-6z" stroke="#5e5e5e" stroke-width="3" fill="#fff"/><use xlink:href="#c" transform="matrix(1,0,0,1,1652,512) translate(48.37654320987673 83.84722222222221)"/><path d="M1640 1016a6 6 0 0 1 6-6h708a6 6 0 0 1 6 6v168a6 6 0 0 1-6 6h-708a6 6 0 0 1-6-6z" stroke="#5e5e5e" stroke-width="3" fill="#fff"/><use xlink:href="#d" transform="matrix(1,0,0,1,1652,1022) translate(161.18518518518525 83.84722222222221)"/><path d="M1640 1526a6 6 0 0 1 6-6h708a6 6 0 0 1 6 6v188a6 6 0 0 1-6 6h-708a6 6 0 0 1-6-6z" stroke="#5e5e5e" stroke-width="3" fill="#fff"/><use xlink:href="#e" transform="matrix(1,0,0,1,1652,1532) translate(171.91358024691365 96.22222222222221)"/><path d="M1637.5 1100H1140" stroke="#5e5e5e" stroke-width="2" fill="none"/><path d="M1638.5 1101h-1.03v-2h1.03z" stroke="#5e5e5e" stroke-width=".05" fill="#5e5e5e"/><path d="M1124.74 1100l14.26-4.63v9.27z" stroke="#5e5e5e" stroke-width="2" fill="#5e5e5e"/><path d="M2000 1007.5V700" stroke="#5e5e5e" stroke-width="2" fill="none"/><path d="M2001 1008.5h-2v-1.03h2z" stroke="#5e5e5e" stroke-width=".05" fill="#5e5e5e"/><path d="M2000 684.74l4.63 14.26h-9.27z" stroke="#5e5e5e" stroke-width="2" fill="#5e5e5e"/><path d="M2000 1192.5V1500" stroke="#5e5e5e" stroke-width="2" fill="none"/><path d="M2001 1192.53h-2v-1.03h2z" stroke="#5e5e5e" stroke-width=".05" fill="#5e5e5e"/><path d="M2000 1515.26l-4.63-14.26h9.27z" stroke="#5e5e5e" stroke-width="2" fill="#5e5e5e"/><path d="M2362.5 1620H2857" stroke="#5e5e5e" stroke-width="2" fill="none"/><path d="M2362.53 1621h-1.03v-2h1.03z" stroke="#5e5e5e" stroke-width=".05" fill="#5e5e5e"/><path d="M2872.26 1620l-14.26 4.63v-9.27z" stroke="#5e5e5e" stroke-width="2" fill="#5e5e5e"/><path d="M1140 1006a6 6 0 0 1 6-6h108a6 6 0 0 1 6 6v68a6 6 0 0 1-6 6h-108a6 6 0 0 1-6-6z" stroke="#000" stroke-opacity="0" stroke-width="3" fill="#fff" fill-opacity="0"/><use xlink:href="#f" transform="matrix(1,0,0,1,1145,1005) translate(8.444444444444464 42.937499999999986)"/><use xlink:href="#g" transform="matrix(1,0,0,1,1145,1005) translate(66.11111111111111 42.937499999999986)"/><path d="M1500 1006a6 6 0 0 1 6-6h108a6 6 0 0 1 6 6v68a6 6 0 0 1-6 6h-108a6 6 0 0 1-6-6z" stroke="#000" stroke-opacity="0" stroke-width="3" fill="#fff" fill-opacity="0"/><use xlink:href="#h" transform="matrix(1,0,0,1,1505,1005) translate(5.166666666666686 42.937499999999986)"/><use xlink:href="#i" transform="matrix(1,0,0,1,1505,1005) translate(62.83333333333333 42.937499999999986)"/><path d="M2019 1208a6 6 0 0 1 6-6h108a6 6 0 0 1 6 6v68a6 6 0 0 1-6 6h-108a6 6 0 0 1-6-6z" stroke="#000" stroke-opacity="0" stroke-width="3" fill="#fff" fill-opacity="0"/><use xlink:href="#f" transform="matrix(1,0,0,1,2024,1207) translate(8.444444444444464 42.937499999999986)"/><use xlink:href="#g" transform="matrix(1,0,0,1,2024,1207) translate(66.11111111111111 42.937499999999986)"/><path d="M2019 1436a6 6 0 0 1 6-6h108a6 6 0 0 1 6 6v68a6 6 0 0 1-6 6h-108a6 6 0 0 1-6-6z" stroke="#000" stroke-opacity="0" stroke-width="3" fill="#fff" fill-opacity="0"/><use xlink:href="#h" transform="matrix(1,0,0,1,2024,1435) translate(5.166666666666686 42.937499999999986)"/><use xlink:href="#i" transform="matrix(1,0,0,1,2024,1435) translate(62.83333333333333 42.937499999999986)"/><path d="M2380 1526a6 6 0 0 1 6-6h108a6 6 0 0 1 6 6v68a6 6 0 0 1-6 6h-108a6 6 0 0 1-6-6z" stroke="#000" stroke-opacity="0" stroke-width="3" fill="#fff" fill-opacity="0"/><use xlink:href="#h" transform="matrix(1,0,0,1,2385,1525) translate(5.166666666666686 42.937499999999986)"/><use xlink:href="#i" transform="matrix(1,0,0,1,2385,1525) translate(62.83333333333333 42.937499999999986)"/><path d="M2737 1513a6 6 0 0 1 6-6h108a6 6 0 0 1 6 6v94a6 6 0 0 1-6 6h-108a6 6 0 0 1-6-6z" stroke="#000" stroke-opacity="0" stroke-width="3" fill="#fff" fill-opacity="0"/><use xlink:href="#f" transform="matrix(1,0,0,1,2742.0000999999993,1512) translate(8.444444444444464 55.999999999999986)"/><use xlink:href="#g" transform="matrix(1,0,0,1,2742.0000999999993,1512) translate(66.11111111111111 55.999999999999986)"/><path d="M2019 920a6 6 0 0 1 6-6h108a6 6 0 0 1 6 6v68a6 6 0 0 1-6 6h-108a6 6 0 0 1-6-6z" stroke="#000" stroke-opacity="0" stroke-width="3" fill="#fff" fill-opacity="0"/><g><use xlink:href="#h" transform="matrix(1,0,0,1,2024,919) translate(5.166666666666686 42.937499999999986)"/><use xlink:href="#i" transform="matrix(1,0,0,1,2024,919) translate(62.83333333333333 42.937499999999986)"/></g><path d="M2019 706a6 6 0 0 1 6-6h108a6 6 0 0 1 6 6v68a6 6 0 0 1-6 6h-108a6 6 0 0 1-6-6z" stroke="#000" stroke-opacity="0" stroke-width="3" fill="#fff" fill-opacity="0"/><g><use xlink:href="#f" transform="matrix(1,0,0,1,2024,705) translate(8.444444444444464 42.937499999999986)"/><use xlink:href="#g" transform="matrix(1,0,0,1,2024,705) translate(66.11111111111111 42.937499999999986)"/></g><defs><path fill="#333" d="M127-220V0H93v-220H8v-28h204v28h-85" id="j"/><path fill="#333" d="M266 0h-40l-56-210L115 0H75L2-248h35L96-30l15-64 43-154h32l59 218 59-218h35" id="k"/><path fill="#333" d="M33 0v-248h34V0H33" id="l"/><path fill="#333" d="M30 0v-248h187v28H63v79h144v27H63v87h162V0H30" id="m"/><path fill="#333" d="M233-177c-1 41-23 64-60 70L243 0h-38l-65-103H63V0H30v-248c88 3 205-21 203 71zM63-129c60-2 137 13 137-47 0-61-80-42-137-45v92" id="n"/><path fill="#333" d="M-5 72V49h209v23H-5" id="o"/><path fill="#333" d="M30-248c118-7 216 8 213 122C240-48 200 0 122 0H30v-248zM63-27c89 8 146-16 146-99s-60-101-146-95v194" id="p"/><path fill="#333" d="M205 0l-28-72H64L36 0H1l101-248h38L239 0h-34zm-38-99l-47-123c-12 45-31 82-46 123h93" id="q"/><path fill="#333" d="M30 0v-248h33v221h125V0H30" id="r"/><path fill="#333" d="M137-103V0h-34v-103L8-248h37l75 118 75-118h37" id="s"/><path fill="#333" d="M185-189c-5-48-123-54-124 2 14 75 158 14 163 119 3 78-121 87-175 55-17-10-28-26-33-46l33-7c5 56 141 63 141-1 0-78-155-14-162-118-5-82 145-84 179-34 5 7 8 16 11 25" id="t"/><path fill="#333" d="M212-179c-10-28-35-45-73-45-59 0-87 40-87 99 0 60 29 101 89 101 43 0 62-24 78-52l27 14C228-24 195 4 139 4 59 4 22-46 18-125c-6-104 99-153 187-111 19 9 31 26 39 46" id="u"/><path fill="#333" d="M140-251c81 0 123 46 123 126C263-46 219 4 140 4 59 4 17-45 17-125s42-126 123-126zm0 227c63 0 89-41 89-101s-29-99-89-99c-61 0-89 39-89 99S79-25 140-24" id="v"/><path fill="#333" d="M232-93c-1 65-40 97-104 97C67 4 28-28 28-90v-158h33c8 89-33 224 67 224 102 0 64-133 71-224h33v155" id="w"/><path fill="#333" d="M190 0L58-211 59 0H30v-248h39L202-35l-2-213h31V0h-41" id="x"/><g id="a"><use transform="matrix(0.10493827160493824,0,0,0.10493827160493824,0,0)" xlink:href="#j"/><use transform="matrix(0.10493827160493824,0,0,0.10493827160493824,22.981481481481474,0)" xlink:href="#k"/><use transform="matrix(0.10493827160493824,0,0,0.10493827160493824,58.555555555555536,0)" xlink:href="#l"/><use transform="matrix(0.10493827160493824,0,0,0.10493827160493824,69.04938271604937,0)" xlink:href="#j"/><use transform="matrix(0.10493827160493824,0,0,0.10493827160493824,92.03086419753083,0)" xlink:href="#j"/><use transform="matrix(0.10493827160493824,0,0,0.10493827160493824,115.01234567901231,0)" xlink:href="#m"/><use transform="matrix(0.10493827160493824,0,0,0.10493827160493824,140.19753086419746,0)" xlink:href="#n"/><use transform="matrix(0.10493827160493824,0,0,0.10493827160493824,167.37654320987647,0)" xlink:href="#o"/><use transform="matrix(0.10493827160493824,0,0,0.10493827160493824,188.36419753086412,0)" xlink:href="#p"/><use transform="matrix(0.10493827160493824,0,0,0.10493827160493824,215.54320987654313,0)" xlink:href="#q"/><use transform="matrix(0.10493827160493824,0,0,0.10493827160493824,240.72839506172826,0)" xlink:href="#l"/><use transform="matrix(0.10493827160493824,0,0,0.10493827160493824,251.2222222222221,0)" xlink:href="#r"/><use transform="matrix(0.10493827160493824,0,0,0.10493827160493824,269.37654320987644,0)" xlink:href="#s"/><use transform="matrix(0.10493827160493824,0,0,0.10493827160493824,294.5617283950616,0)" xlink:href="#o"/><use transform="matrix(0.10493827160493824,0,0,0.10493827160493824,315.54938271604925,0)" xlink:href="#t"/><use transform="matrix(0.10493827160493824,0,0,0.10493827160493824,340.7345679012344,0)" xlink:href="#j"/><use transform="matrix(0.10493827160493824,0,0,0.10493827160493824,360.88271604938257,0)" xlink:href="#q"/><use transform="matrix(0.10493827160493824,0,0,0.10493827160493824,383.2345679012344,0)" xlink:href="#j"/><use transform="matrix(0.10493827160493824,0,0,0.10493827160493824,406.2160493827159,0)" xlink:href="#t"/><use transform="matrix(0.10493827160493824,0,0,0.10493827160493824,431.401234567901,0)" xlink:href="#o"/><use transform="matrix(0.10493827160493824,0,0,0.10493827160493824,452.38888888888863,0)" xlink:href="#q"/><use transform="matrix(0.10493827160493824,0,0,0.10493827160493824,477.57407407407385,0)" xlink:href="#u"/><use transform="matrix(0.10493827160493824,0,0,0.10493827160493824,504.75308641975283,0)" xlink:href="#u"/><use transform="matrix(0.10493827160493824,0,0,0.10493827160493824,531.9320987654319,0)" xlink:href="#v"/><use transform="matrix(0.10493827160493824,0,0,0.10493827160493824,561.3148148148146,0)" xlink:href="#w"/><use transform="matrix(0.10493827160493824,0,0,0.10493827160493824,588.4938271604935,0)" xlink:href="#x"/><use transform="matrix(0.10493827160493824,0,0,0.10493827160493824,615.6728395061725,0)" xlink:href="#j"/></g><path fill="#333" d="M143 4C61 4 22-44 18-125c-5-107 100-154 193-111 17 8 29 25 37 43l-32 9c-13-25-37-40-76-40-61 0-88 39-88 99 0 61 29 100 91 101 35 0 62-11 79-27v-45h-74v-28h105v86C228-13 192 4 143 4" id="y"/><path fill="#333" d="M30-248c87 1 191-15 191 75 0 78-77 80-158 76V0H30v-248zm33 125c57 0 124 11 124-50 0-59-68-47-124-48v98" id="z"/><g id="b"><use transform="matrix(0.10493827160493824,0,0,0.10493827160493824,0,0)" xlink:href="#j"/><use transform="matrix(0.10493827160493824,0,0,0.10493827160493824,22.981481481481474,0)" xlink:href="#k"/><use transform="matrix(0.10493827160493824,0,0,0.10493827160493824,58.555555555555536,0)" xlink:href="#l"/><use transform="matrix(0.10493827160493824,0,0,0.10493827160493824,69.04938271604937,0)" xlink:href="#j"/><use transform="matrix(0.10493827160493824,0,0,0.10493827160493824,92.03086419753083,0)" xlink:href="#j"/><use transform="matrix(0.10493827160493824,0,0,0.10493827160493824,115.01234567901231,0)" xlink:href="#m"/><use transform="matrix(0.10493827160493824,0,0,0.10493827160493824,140.19753086419746,0)" xlink:href="#n"/><use transform="matrix(0.10493827160493824,0,0,0.10493827160493824,167.37654320987647,0)" xlink:href="#o"/><use transform="matrix(0.10493827160493824,0,0,0.10493827160493824,188.36419753086412,0)" xlink:href="#p"/><use transform="matrix(0.10493827160493824,0,0,0.10493827160493824,215.54320987654313,0)" xlink:href="#q"/><use transform="matrix(0.10493827160493824,0,0,0.10493827160493824,240.72839506172826,0)" xlink:href="#l"/><use transform="matrix(0.10493827160493824,0,0,0.10493827160493824,251.2222222222221,0)" xlink:href="#r"/><use transform="matrix(0.10493827160493824,0,0,0.10493827160493824,269.37654320987644,0)" xlink:href="#s"/><use transform="matrix(0.10493827160493824,0,0,0.10493827160493824,294.5617283950616,0)" xlink:href="#o"/><use transform="matrix(0.10493827160493824,0,0,0.10493827160493824,315.54938271604925,0)" xlink:href="#t"/><use transform="matrix(0.10493827160493824,0,0,0.10493827160493824,340.7345679012344,0)" xlink:href="#j"/><use transform="matrix(0.10493827160493824,0,0,0.10493827160493824,360.88271604938257,0)" xlink:href="#q"/><use transform="matrix(0.10493827160493824,0,0,0.10493827160493824,383.2345679012344,0)" xlink:href="#j"/><use transform="matrix(0.10493827160493824,0,0,0.10493827160493824,406.2160493827159,0)" xlink:href="#t"/><use transform="matrix(0.10493827160493824,0,0,0.10493827160493824,431.401234567901,0)" xlink:href="#o"/><use transform="matrix(0.10493827160493824,0,0,0.10493827160493824,452.38888888888863,0)" xlink:href="#y"/><use transform="matrix(0.10493827160493824,0,0,0.10493827160493824,481.77160493827137,0)" xlink:href="#n"/><use transform="matrix(0.10493827160493824,0,0,0.10493827160493824,508.95061728395035,0)" xlink:href="#v"/><use transform="matrix(0.10493827160493824,0,0,0.10493827160493824,538.333333333333,0)" xlink:href="#w"/><use transform="matrix(0.10493827160493824,0,0,0.10493827160493824,565.512345679012,0)" xlink:href="#z"/></g><path fill="#333" d="M197 0v-115H63V0H30v-248h33v105h134v-105h34V0h-34" id="A"/><g id="c"><use transform="matrix(0.10493827160493824,0,0,0.10493827160493824,0,0)" xlink:href="#j"/><use transform="matrix(0.10493827160493824,0,0,0.10493827160493824,22.981481481481474,0)" xlink:href="#k"/><use transform="matrix(0.10493827160493824,0,0,0.10493827160493824,58.555555555555536,0)" xlink:href="#l"/><use transform="matrix(0.10493827160493824,0,0,0.10493827160493824,69.04938271604937,0)" xlink:href="#j"/><use transform="matrix(0.10493827160493824,0,0,0.10493827160493824,92.03086419753083,0)" xlink:href="#j"/><use transform="matrix(0.10493827160493824,0,0,0.10493827160493824,115.01234567901231,0)" xlink:href="#m"/><use transform="matrix(0.10493827160493824,0,0,0.10493827160493824,140.19753086419746,0)" xlink:href="#n"/><use transform="matrix(0.10493827160493824,0,0,0.10493827160493824,167.37654320987647,0)" xlink:href="#o"/><use transform="matrix(0.10493827160493824,0,0,0.10493827160493824,188.36419753086412,0)" xlink:href="#A"/><use transform="matrix(0.10493827160493824,0,0,0.10493827160493824,215.54320987654313,0)" xlink:href="#q"/><use transform="matrix(0.10493827160493824,0,0,0.10493827160493824,240.72839506172826,0)" xlink:href="#t"/><use transform="matrix(0.10493827160493824,0,0,0.10493827160493824,265.91358024691345,0)" xlink:href="#A"/><use transform="matrix(0.10493827160493824,0,0,0.10493827160493824,293.09259259259244,0)" xlink:href="#j"/><use transform="matrix(0.10493827160493824,0,0,0.10493827160493824,313.2407407407406,0)" xlink:href="#q"/><use transform="matrix(0.10493827160493824,0,0,0.10493827160493824,338.42592592592575,0)" xlink:href="#y"/><use transform="matrix(0.10493827160493824,0,0,0.10493827160493824,367.80864197530843,0)" xlink:href="#t"/><use transform="matrix(0.10493827160493824,0,0,0.10493827160493824,392.9938271604936,0)" xlink:href="#o"/><use transform="matrix(0.10493827160493824,0,0,0.10493827160493824,413.98148148148124,0)" xlink:href="#q"/><use transform="matrix(0.10493827160493824,0,0,0.10493827160493824,439.16666666666646,0)" xlink:href="#u"/><use transform="matrix(0.10493827160493824,0,0,0.10493827160493824,466.34567901234533,0)" xlink:href="#u"/><use transform="matrix(0.10493827160493824,0,0,0.10493827160493824,493.52469135802437,0)" xlink:href="#v"/><use transform="matrix(0.10493827160493824,0,0,0.10493827160493824,522.907407407407,0)" xlink:href="#w"/><use transform="matrix(0.10493827160493824,0,0,0.10493827160493824,550.086419753086,0)" xlink:href="#x"/><use transform="matrix(0.10493827160493824,0,0,0.10493827160493824,577.265432098765,0)" xlink:href="#j"/></g><g id="d"><use transform="matrix(0.10493827160493824,0,0,0.10493827160493824,0,0)" xlink:href="#j"/><use transform="matrix(0.10493827160493824,0,0,0.10493827160493824,22.981481481481474,0)" xlink:href="#k"/><use transform="matrix(0.10493827160493824,0,0,0.10493827160493824,58.555555555555536,0)" xlink:href="#l"/><use transform="matrix(0.10493827160493824,0,0,0.10493827160493824,69.04938271604937,0)" xlink:href="#j"/><use transform="matrix(0.10493827160493824,0,0,0.10493827160493824,92.03086419753083,0)" xlink:href="#j"/><use transform="matrix(0.10493827160493824,0,0,0.10493827160493824,115.01234567901231,0)" xlink:href="#m"/><use transform="matrix(0.10493827160493824,0,0,0.10493827160493824,140.19753086419746,0)" xlink:href="#n"/><use transform="matrix(0.10493827160493824,0,0,0.10493827160493824,167.37654320987647,0)" xlink:href="#o"/><use transform="matrix(0.10493827160493824,0,0,0.10493827160493824,188.36419753086412,0)" xlink:href="#q"/><use transform="matrix(0.10493827160493824,0,0,0.10493827160493824,213.5493827160493,0)" xlink:href="#u"/><use transform="matrix(0.10493827160493824,0,0,0.10493827160493824,240.72839506172832,0)" xlink:href="#u"/><use transform="matrix(0.10493827160493824,0,0,0.10493827160493824,267.90740740740733,0)" xlink:href="#v"/><use transform="matrix(0.10493827160493824,0,0,0.10493827160493824,297.29012345679007,0)" xlink:href="#w"/><use transform="matrix(0.10493827160493824,0,0,0.10493827160493824,324.46913580246905,0)" xlink:href="#x"/><use transform="matrix(0.10493827160493824,0,0,0.10493827160493824,351.64814814814804,0)" xlink:href="#j"/></g><g id="e"><use transform="matrix(0.10493827160493824,0,0,0.10493827160493824,0,0)" xlink:href="#z"/><use transform="matrix(0.10493827160493824,0,0,0.10493827160493824,25.185185185185176,0)" xlink:href="#v"/><use transform="matrix(0.10493827160493824,0,0,0.10493827160493824,54.567901234567884,0)" xlink:href="#r"/><use transform="matrix(0.10493827160493824,0,0,0.10493827160493824,75.55555555555553,0)" xlink:href="#l"/><use transform="matrix(0.10493827160493824,0,0,0.10493827160493824,86.04938271604935,0)" xlink:href="#j"/><use transform="matrix(0.10493827160493824,0,0,0.10493827160493824,109.03086419753083,0)" xlink:href="#l"/><use transform="matrix(0.10493827160493824,0,0,0.10493827160493824,119.52469135802465,0)" xlink:href="#u"/><use transform="matrix(0.10493827160493824,0,0,0.10493827160493824,146.70370370370367,0)" xlink:href="#q"/><use transform="matrix(0.10493827160493824,0,0,0.10493827160493824,171.88888888888886,0)" xlink:href="#r"/><use transform="matrix(0.10493827160493824,0,0,0.10493827160493824,192.8765432098765,0)" xlink:href="#o"/><use transform="matrix(0.10493827160493824,0,0,0.10493827160493824,213.86419753086415,0)" xlink:href="#y"/><use transform="matrix(0.10493827160493824,0,0,0.10493827160493824,243.24691358024683,0)" xlink:href="#n"/><use transform="matrix(0.10493827160493824,0,0,0.10493827160493824,270.42592592592587,0)" xlink:href="#v"/><use transform="matrix(0.10493827160493824,0,0,0.10493827160493824,299.80864197530855,0)" xlink:href="#w"/><use transform="matrix(0.10493827160493824,0,0,0.10493827160493824,326.98765432098753,0)" xlink:href="#z"/></g><path fill="#333" d="M87 75C49 33 22-17 22-94c0-76 28-126 65-167h31c-38 41-64 92-64 168S80 34 118 75H87" id="B"/><path fill="#333" d="M27 0v-27h64v-190l-56 39v-29l58-41h29v221h61V0H27" id="C"/><path fill="#333" d="M68-38c1 34 0 65-14 84H32c9-13 17-26 17-46H33v-38h35" id="D"/><g id="f"><use transform="matrix(0.11111111111111108,0,0,0.11111111111111108,0,0)" xlink:href="#B"/><use transform="matrix(0.11111111111111108,0,0,0.11111111111111108,13.222222222222218,0)" xlink:href="#C"/><use transform="matrix(0.11111111111111108,0,0,0.11111111111111108,35.44444444444443,0)" xlink:href="#D"/></g><path fill="#333" d="M33-261c38 41 65 92 65 168S71 34 33 75H2C39 34 66-17 66-93S39-220 2-261h31" id="E"/><g id="g"><use transform="matrix(0.11111111111111108,0,0,0.11111111111111108,0,0)" xlink:href="#C"/><use transform="matrix(0.11111111111111108,0,0,0.11111111111111108,22.222222222222214,0)" xlink:href="#E"/></g><path fill="#333" d="M101-251c68 0 85 55 85 127S166 4 100 4C33 4 14-52 14-124c0-73 17-127 87-127zm-1 229c47 0 54-49 54-102s-4-102-53-102c-51 0-55 48-55 102 0 53 5 102 54 102" id="F"/><g id="h"><use transform="matrix(0.11111111111111108,0,0,0.11111111111111108,0,0)" xlink:href="#B"/><use transform="matrix(0.11111111111111108,0,0,0.11111111111111108,13.222222222222218,0)" xlink:href="#F"/><use transform="matrix(0.11111111111111108,0,0,0.11111111111111108,35.44444444444443,0)" xlink:href="#D"/></g><g id="i"><use transform="matrix(0.11111111111111108,0,0,0.11111111111111108,0,0)" xlink:href="#x"/><use transform="matrix(0.11111111111111108,0,0,0.11111111111111108,28.777777777777768,0)" xlink:href="#E"/></g></defs></g></svg>